<svg width="32" height="32" viewBox="0 0 32 32" fill="none" xmlns="http://www.w3.org/2000/svg">
<g id="arrow-left-short">
<path id="Vector" d="M31.9995 0.0005V31.9995H0.0005V0.0005H31.9995Z" stroke="#111827" stroke-width="0.001"/>
<path id="Vector_2" d="M12.6106 14.6584L12.611 14.6588L12.6111 14.6589H12.6223H12.6341H12.6461H12.6582H12.6704H12.6827H12.6951H12.7077H12.7204H12.7332H12.7461H12.7591H12.7723H12.7856H12.799H12.8125H12.8261H12.8399H12.8537H12.8677H12.8818H12.896H12.9103H12.9247H12.9393H12.9539H12.9687H12.9836H12.9985H13.0136H13.0288H13.0441H13.0595H13.0751H13.0907H13.1064H13.1223H13.1382H13.1543H13.1704H13.1867H13.203H13.2195H13.236H13.2527H13.2695H13.2863H13.3033H13.3203H13.3375H13.3548H13.3721H13.3896H13.4071H13.4247H13.4425H13.4603H13.4782H13.4962H13.5144H13.5326H13.5508H13.5692H13.5877H13.6063H13.6249H13.6437H13.6625H13.6814H13.7004H13.7195H13.7387H13.7579H13.7773H13.7967H13.8162H13.8358H13.8555H13.8753H13.8951H13.9151H13.9351H13.9552H13.9753H13.9956H14.0159H14.0363H14.0568H14.0773H14.098H14.1187H14.1395H14.1603H14.1813H14.2023H14.2233H14.2445H14.2657H14.287H14.3084H14.3298H14.3513H14.3729H14.3945H14.4162H14.438H14.4599H14.4818H14.5038H14.5258H14.5479H14.5701H14.5923H14.6146H14.637H14.6594H14.6819H14.7044H14.727H14.7497H14.7724H14.7952H14.818H14.8409H14.8639H14.8869H14.91H14.9331H14.9562H14.9795H15.0028H15.0261H15.0495H15.0729H15.0964H15.12H15.1436H15.1672H15.1909H15.2147H15.2384H15.2623H15.2862H15.3101H15.3341H15.3581H15.3822H15.4063H15.4304H15.4546H15.4789H15.5032H15.5275H15.5519H15.5763H15.6007H15.6252H15.6497H15.6743H15.6989H15.7236H15.7482H15.7729H15.7977H15.8225H15.8473H15.8721H15.897H15.9219H15.9469H15.9719H15.9969H16.0219H16.047H16.0721H16.0973H16.1224H16.1476H16.1728H16.1981H16.2233H16.2486H16.274H16.2993H16.3247H16.3501H16.3755H16.4009H16.4264H16.4519H16.4774H16.5029H16.5284H16.554H16.5796H16.6052H16.6308H16.6564H16.6821H16.7077H16.7334H16.7591H16.7848H16.8105H16.8363H16.862H16.8878H16.9135H16.9393H16.9651H16.9909H17.0167H17.0426H17.0684H17.0942H17.1201H17.1459H17.1718H17.1976H17.2235H17.2494H17.2752H17.3011H17.327H17.3529H17.3788H17.4046H17.4305H17.4564H17.4823H17.5082H17.5341H17.5599H17.5858H17.6117H17.6376H17.6634H17.6893H17.7151H17.741H17.7668H17.7927H17.8185H17.8443H17.8701H17.8959H17.9217H17.9475H17.9733H17.999H18.0248H18.0505H18.0762H18.1019H18.1276H18.1533H18.1789H18.2046H18.2302H18.2558H18.2814H18.307H18.3325H18.3581H18.3836H18.4091H18.4346H18.46H18.4855H18.5109H18.5363H18.5616H18.587H18.6123H18.6376H18.6628H18.6881H18.7133H18.7384H18.7636H18.7887H18.8138H18.8389H18.8639H18.8889H18.9139H18.9388H18.9637H18.9886H19.0135H19.0383H19.0631H19.0878H19.1125H19.1372H19.1618H19.1864H19.2109H19.2355H19.2599H19.2844H19.3088H19.3331H19.3574H19.3817H19.4059H19.4301H19.4543H19.4784H19.5024H19.5264H19.5504H19.5743H19.5982H19.622H19.6458H19.6695H19.6932H19.7168H19.7404H19.764H19.7874H19.8109H19.8342H19.8576H19.8808H19.904H19.9272H19.9503H19.9734H19.9964H20.0193H20.0422H20.065H20.0878H20.1105H20.1331H20.1557H20.1782H20.2007H20.2231H20.2454H20.2677H20.2899H20.3121H20.3342H20.3562H20.3782H20.4001H20.4219H20.4436H20.4653H20.487H20.5085H20.53H20.5514H20.5728H20.594H20.6152H20.6364H20.6574H20.6784H20.6993H20.7202H20.7409H20.7616H20.7822H20.8028H20.8232H20.8436H20.8639H20.8841H20.9043H20.9243H20.9443H20.9642H20.984H21.0038H21.0234H21.043H21.0625H21.0819H21.1012H21.1205H21.1396H21.1587H21.1777H21.1966H21.2154H21.2341H21.2527H21.2713H21.2897H21.3081H21.3263H21.3445H21.3626H21.3806H21.3985H21.4163H21.434H21.4516H21.4691H21.4865H21.5039H21.5211H21.5382H21.5553H21.5722H21.589H21.6058H21.6224H21.6389H21.6553H21.6717H21.6879H21.704H21.72H21.736H21.7518H21.7675H21.7831H21.7986H21.8139H21.8292H21.8444H21.8594H21.8744H21.8892H21.904H21.9186H21.9331H21.9475H21.9618H21.9759H21.99H22.0039H22.0178H22.0315H22.0451H22.0585H22.0719H22.0852H22.0983H22.1113H22.1242H22.137H22.1496H22.1621H22.1745H22.1868H22.199H22.211H22.2229H22.2347H22.2464H22.2579H22.2694H22.2807H22.2918H22.3029H22.3138H22.3245H22.3352H22.3457H22.3561H22.3664H22.3765H22.3865H22.3964H22.4061H22.4157H22.4252H22.4345H22.4437H22.4527H22.4617H22.4704H22.4791H22.4876H22.496H22.5042H22.5123H22.5203H22.5281H22.5358H22.5433H22.5507H22.5579H22.565H22.572H22.5788H22.5855H22.592H22.5984H22.6046H22.6107H22.6166H22.6224H22.6281H22.6336H22.6389H22.6441H22.6491H22.654H22.6587H22.6633H22.6678H22.672H22.6762H22.6801H22.6839C23.4197 14.6589 24.0154 15.2547 24.0154 15.9904C24.0154 16.7261 23.4197 17.3219 22.6839 17.3219H22.6801H22.6762H22.672H22.6678H22.6633H22.6587H22.654H22.6491H22.6441H22.6389H22.6336H22.6281H22.6224H22.6166H22.6107H22.6046H22.5984H22.592H22.5855H22.5788H22.572H22.565H22.5579H22.5507H22.5433H22.5358H22.5281H22.5203H22.5123H22.5042H22.496H22.4876H22.4791H22.4704H22.4617H22.4527H22.4437H22.4345H22.4252H22.4157H22.4061H22.3964H22.3865H22.3765H22.3664H22.3561H22.3457H22.3352H22.3245H22.3138H22.3029H22.2918H22.2807H22.2694H22.2579H22.2464H22.2347H22.2229H22.211H22.199H22.1868H22.1745H22.1621H22.1496H22.137H22.1242H22.1113H22.0983H22.0852H22.0719H22.0585H22.0451H22.0315H22.0178H22.0039H21.99H21.9759H21.9618H21.9475H21.9331H21.9186H21.904H21.8892H21.8744H21.8594H21.8444H21.8292H21.8139H21.7986H21.7831H21.7675H21.7518H21.736H21.72H21.704H21.6879H21.6717H21.6553H21.6389H21.6224H21.6058H21.589H21.5722H21.5553H21.5382H21.5211H21.5039H21.4865H21.4691H21.4516H21.434H21.4163H21.3985H21.3806H21.3626H21.3445H21.3263H21.3081H21.2897H21.2713H21.2527H21.2341H21.2154H21.1966H21.1777H21.1587H21.1396H21.1205H21.1012H21.0819H21.0625H21.043H21.0234H21.0038H20.984H20.9642H20.9443H20.9243H20.9043H20.8841H20.8639H20.8436H20.8232H20.8028H20.7822H20.7616H20.7409H20.7202H20.6993H20.6784H20.6574H20.6364H20.6152H20.594H20.5728H20.5514H20.53H20.5085H20.487H20.4653H20.4436H20.4219H20.4001H20.3782H20.3562H20.3342H20.3121H20.2899H20.2677H20.2454H20.2231H20.2007H20.1782H20.1557H20.1331H20.1105H20.0878H20.065H20.0422H20.0193H19.9964H19.9734H19.9503H19.9272H19.904H19.8808H19.8576H19.8342H19.8109H19.7874H19.764H19.7404H19.7168H19.6932H19.6695H19.6458H19.622H19.5982H19.5743H19.5504H19.5264H19.5024H19.4784H19.4543H19.4301H19.4059H19.3817H19.3574H19.3331H19.3088H19.2844H19.2599H19.2355H19.2109H19.1864H19.1618H19.1372H19.1125H19.0878H19.0631H19.0383H19.0135H18.9886H18.9637H18.9388H18.9139H18.8889H18.8639H18.8389H18.8138H18.7887H18.7636H18.7384H18.7133H18.6881H18.6628H18.6376H18.6123H18.587H18.5616H18.5363H18.5109H18.4855H18.46H18.4346H18.4091H18.3836H18.3581H18.3325H18.307H18.2814H18.2558H18.2302H18.2046H18.1789H18.1533H18.1276H18.1019H18.0762H18.0505H18.0248H17.999H17.9733H17.9475H17.9217H17.8959H17.8701H17.8443H17.8185H17.7927H17.7668H17.741H17.7151H17.6893H17.6634H17.6376H17.6117H17.5858H17.5599H17.5341H17.5082H17.4823H17.4564H17.4305H17.4046H17.3788H17.3529H17.327H17.3011H17.2752H17.2494H17.2235H17.1976H17.1718H17.1459H17.1201H17.0942H17.0684H17.0426H17.0167H16.9909H16.9651H16.9393H16.9135H16.8878H16.862H16.8363H16.8105H16.7848H16.7591H16.7334H16.7077H16.6821H16.6564H16.6308H16.6052H16.5796H16.554H16.5284H16.5029H16.4774H16.4519H16.4264H16.4009H16.3755H16.3501H16.3247H16.2993H16.274H16.2486H16.2233H16.1981H16.1728H16.1476H16.1224H16.0973H16.0721H16.047H16.0219H15.9969H15.9719H15.9469H15.9219H15.897H15.8721H15.8473H15.8225H15.7977H15.7729H15.7482H15.7236H15.6989H15.6743H15.6497H15.6252H15.6007H15.5763H15.5519H15.5275H15.5032H15.4789H15.4546H15.4304H15.4063H15.3822H15.3581H15.3341H15.3101H15.2862H15.2623H15.2384H15.2147H15.1909H15.1672H15.1436H15.12H15.0964H15.0729H15.0495H15.0261H15.0028H14.9795H14.9562H14.9331H14.91H14.8869H14.8639H14.8409H14.818H14.7952H14.7724H14.7497H14.727H14.7044H14.6819H14.6594H14.637H14.6146H14.5923H14.5701H14.5479H14.5258H14.5038H14.4818H14.4599H14.438H14.4162H14.3945H14.3729H14.3513H14.3298H14.3084H14.287H14.2657H14.2445H14.2233H14.2023H14.1813H14.1603H14.1395H14.1187H14.098H14.0773H14.0568H14.0363H14.0159H13.9956H13.9753H13.9552H13.9351H13.9151H13.8951H13.8753H13.8555H13.8358H13.8162H13.7967H13.7773H13.7579H13.7387H13.7195H13.7004H13.6814H13.6625H13.6437H13.6249H13.6063H13.5877H13.5692H13.5508H13.5326H13.5144H13.4962H13.4782H13.4603H13.4425H13.4247H13.4071H13.3896H13.3721H13.3548H13.3375H13.3203H13.3033H13.2863H13.2695H13.2527H13.236H13.2195H13.203H13.1867H13.1704H13.1543H13.1382H13.1223H13.1064H13.0907H13.0751H13.0595H13.0441H13.0288H13.0136H12.9985H12.9836H12.9687H12.9539H12.9393H12.9247H12.9103H12.896H12.8818H12.8677H12.8537H12.8399H12.8261H12.8125H12.799H12.7856H12.7723H12.7591H12.7461H12.7332H12.7204H12.7077H12.6951H12.6827H12.6704H12.6582H12.6461H12.6341H12.6223H12.6106V17.3224V17.3229V17.3231L16.5645 21.3184L14.6919 23.191L8.40695 16.9474C8.14705 16.6875 8.01643 16.3396 8.01643 15.9917C8.01643 15.6425 8.14572 15.2933 8.40695 15.0334L14.6919 8.78977L16.5645 10.6624L12.6103 14.6581L12.6106 14.6584Z" fill="black" stroke="#111827" stroke-width="0.001"/>
</g>
</svg>
